<svg width="640" height="480" xmlns="http://www.w3.org/2000/svg" xmlns:svg="http://www.w3.org/2000/svg" xmlns:xlink="http://www.w3.org/1999/xlink">
 <!-- Created with SVG-edit - http://svg-edit.googlecode.com/ -->
 <defs>
  <symbol id="svg_2" viewBox="0 0 100 100" xmlns="http://www.w3.org/2000/svg" xmlns:xlink="http://www.w3.org/1999/xlink">
   <path id="svg_1" fill="#000000" d="m68.287003,37.040001c-0.066002,0 -0.130005,0.010998 -0.195999,0.010998c-0.708,-10.387999 -9.467003,-18.692999 -19.982002,-18.692999c-11.058002,0 -20.054001,8.996 -20.054001,20.053999c0,2.509003 0.473,4.926003 1.362,7.220001c-0.492001,-0.056999 -0.989,-0.095001 -1.487,-0.095001c-6.958,0 -12.62,5.661003 -12.62,12.618999s5.662,12.620003 12.62,12.620003l41.417999,0l0,-0.053001c8.806,-0.553001 15.806,-7.871998 15.806,-16.814999c0,-9.303001 -7.566002,-16.868 -16.866997,-16.868zm0,31.860001l-40.357002,0c-5.925001,0 -10.745001,-4.819 -10.745001,-10.745003c0,-5.924999 4.819,-10.743999 10.745001,-10.743999c0.942999,0 1.879,0.123001 2.785,0.362c0.075001,0.021999 0.148001,0.013 0.222,0.014999c0.004999,0.002003 0.011,0.005001 0.015999,0.005001c0.004002,0 0.008001,-0.000999 0.011002,-0.000999c0.379,0 0.712,-0.230999 0.851999,-0.59c0.007,-0.02 0.02,-0.036999 0.025,-0.055c0.005001,-0.014999 0.017,-0.026001 0.02,-0.041c0.017,-0.062 0.007999,-0.120998 0.011,-0.182999c0.003,-0.050999 0.013,-0.098999 0.009001,-0.152c-0.007,-0.063999 -0.029001,-0.123001 -0.050001,-0.182999c-0.014999,-0.050003 -0.014999,-0.099003 -0.038,-0.146c-1.236,-2.509003 -1.863998,-5.211002 -1.863998,-8.031002c0,-10.022999 8.155998,-18.178999 18.179001,-18.178999c9.530998,0 17.467995,7.525999 18.114998,16.941c-1.810997,0.220001 -3.562,0.722 -5.223999,1.518002c-0.466999,0.224998 -0.665001,0.783997 -0.441002,1.25c0.226002,0.468998 0.790001,0.660999 1.250999,0.440998c2.032001,-0.973999 4.210999,-1.467999 6.478004,-1.467999c8.266998,0 14.992996,6.724998 14.992996,14.991997c-0.000999,8.269001 -6.725998,14.994003 -14.992996,14.994003z"/>
   <ellipse id="svg_5" fill="#000000" cx="40.855" cy="49.062" rx="1.875" ry="2.812"/>
   <ellipse id="svg_6" fill="#000000" cx="59.605" cy="49.062" rx="1.875" ry="2.812"/>
   <path id="svg_7" fill="#000000" d="m55.881001,54.688c-0.518002,0 -0.938,0.418999 -0.938,0.938c0,2.584999 -2.102001,4.688 -4.688,4.688s-4.688,-2.101997 -4.688,-4.688c0,-0.517998 -0.419003,-0.938 -0.938,-0.938s-0.938,0.418999 -0.938,0.938c0,3.618 2.943996,6.562 6.561996,6.562s6.562,-2.944 6.562,-6.562c0.004002,-0.519001 -0.416,-0.938 -0.933998,-0.938z"/>
  </symbol>
  <symbol id="svg_9" viewBox="0 0 100 100" xmlns="http://www.w3.org/2000/svg" xmlns:xlink="http://www.w3.org/1999/xlink">
   <g id="svg_8" transform="translate(0.000000,2000.000000) scale(0.100000,-0.100000)">
    <path id="svg_11" fill="#000000" d="m53.379002,19867.917969c-26.748001,-4.248047 -47.295002,-24.130859 -52.578002,-50.722656c-1.074,-5.332031 -1.074,-538.310547 0,-543.691406c3.594,-18.339844 14.404,-33.720703 30.283,-43.046875c4.667999,-2.714844 10.352001,-5.019531 16.865002,-6.816406l4.921997,-1.376953l300.478001,-0.15625l300.497986,-0.097656l22.333984,-22.138672c12.304993,-12.197266 49.960999,-49.609375 83.682007,-83.115234c44.481995,-44.228516 62.061035,-61.337891 63.799011,-62.265625c2.002014,-1.025391 3.231995,-1.279297 6.299011,-1.328125c4.971008,0 8.867004,1.738281 11.532959,5.224609c3.535034,4.667969 3.330017,-0.771484 3.330017,85.576172l0,78.046875l49.140991,0c41.200989,0 49.814026,0.097656 53.496033,0.761719c15.68396,2.714844 29.667969,11.015625 39.052979,23.066406c7.432007,9.580078 11.52301,19.365234 13.065979,31.152344c0.361023,2.919922 0.507996,84.091797 0.361023,271.171875c-0.156006,250.068359 -0.205017,267.1875 -1.025024,270.46875c-2.362976,9.472656 -6.054993,17.519531 -10.96698,24.228516c-9.531006,12.8125 -21.52301,20.556641 -38.330017,24.648438c-3.388977,0.878906 -29.414001,0.927734 -447.860962,0.976563c-358.496002,0.107422 -445.049015,0 -448.379005,-0.566406l0.000011,0zm891.620998,-29.208984c1.69873,-0.410156 5.02887,-1.738281 7.432007,-2.919922c6.044983,-2.919922 11.786987,-8.652344 14.813843,-14.804688c3.945129,-8.046875 3.633179,18.291016 3.633179,-275.947266c0,-261.542969 0,-264.511719 -1.025024,-268.408203c-3.065979,-11.992188 -12.090027,-21.210938 -24.335999,-24.746094c-2.822021,-0.820313 -7.890991,-0.927734 -66.465027,-1.074219l-63.437988,-0.15625l-0.097961,-73.945313l-0.156006,-73.992188l-23.574036,23.367188c-12.958984,12.861328 -42.84198,42.529297 -66.356995,65.898438c-23.524963,23.417969 -46.630981,46.220703 -51.299011,50.625l-8.505981,8.095703l-304.072235,0.107422c-288.857101,0.146484 -304.228073,0.205078 -307.147903,1.074219c-12.354,3.632813 -21.27,12.705078 -24.395002,24.853516c-0.966999,3.789063 -0.966999,8.710938 -0.966999,268.300781c0,294.238281 -0.312,267.900391 3.633001,275.947266c3.027,6.152344 8.759998,11.884766 14.813999,14.863281c2.402,1.123047 5.634998,2.402344 7.167999,2.8125c2.460999,0.664063 61.953003,0.771484 445.049019,0.771484c392.821869,0.048828 442.57785,-0.048828 445.292877,-0.722656l0.000061,0l0.000061,0l0.000061,0l0.000061,0z"/>
   </g>
  </symbol>
  <symbol id="svg_12" viewBox="0 0 98.687 100" xmlns="http://www.w3.org/2000/svg" xmlns:xlink="http://www.w3.org/1999/xlink">
   <path id="svg_14" fill="#010101" d="m82.766998,2.221c-7.431,-4.29 -16.803001,-2.165 -21.704998,4.656c-1.944,-0.265 -3.908001,-0.4 -5.883999,-0.4c-15.963001,0 -29.943001,8.639 -37.52,21.485c3.556,0.174999 6.886,1.197001 9.804998,2.860001c6.094,-8.777 16.243002,-14.536001 27.715002,-14.536001c0.923,0 1.843998,0.042 2.760998,0.117001c-0.048,5.769001 2.923,11.399 8.273998,14.489c7.919014,4.571001 18.042,1.858 22.612999,-6.059999c4.571014,-7.915001 1.859001,-18.040001 -6.058998,-22.611001z"/>
   <path id="svg_15" fill="#010101" d="m0,50.006001c0,8.579998 6.526,15.634998 14.886,16.469997c0.744,1.815002 1.609001,3.584 2.596001,5.296013c7.98,13.822998 22.454,21.612 37.366999,21.75c-1.625999,-3.169014 -2.409,-6.563004 -2.425999,-9.923004c-10.647999,-0.889 -20.711,-6.797997 -26.446001,-16.733986c-0.462,-0.798004 -0.886,-1.617004 -1.279999,-2.449013c5.021,-2.841999 8.411001,-8.228996 8.411001,-14.41c0,-9.141998 -7.413002,-16.553997 -16.555002,-16.553997c-9.142,0.000999 -16.552999,7.411999 -16.552999,16.553997l0,-0.000008z"/>
   <path id="svg_16" fill="#010101" d="m82.755997,97.778999c7.43,-4.289001 10.275002,-13.468002 6.82,-21.124001c1.201004,-1.553001 2.300003,-3.185997 3.287003,-4.895996c7.983002,-13.823002 7.492004,-30.251003 0.154999,-43.237003c-1.931999,2.992001 -4.479996,5.366001 -7.380997,7.062c4.554001,9.666 4.465996,21.334999 -1.269005,31.268997c-0.460999,0.801003 -0.957977,1.577003 -1.481987,2.332001c-4.972,-2.924995 -11.332001,-3.166 -16.685013,-0.076996c-7.917995,4.570999 -10.629997,14.695999 -6.059998,22.612c4.572998,7.917 14.697998,10.631996 22.614998,6.058998z"/>
  </symbol>
 </defs>
 <g>
  <title>Layer 1</title>
  <rect fill="#67db84" stroke="#000000" stroke-width="0" width="640" height="480" id="svg_4"/>
  <use id="svg_3" xlink:href="#svg_2" transform="matrix(1.01456 0 0 1.01456 13.7507 167.054)" y="-55" x="105.20945"/>
  <use id="svg_10" xlink:href="#svg_9" transform="matrix(0.582185 0 0 0.582185 80.6557 -50.9408)" y="196.68026" x="-137.41345"/>
  <use id="svg_13" xlink:href="#svg_12" transform="matrix(0.302872 0 0 0.302872 90.7776 400.929)" y="-935.77138" x="-19.7284"/>
 </g>
</svg>
